<mxfile host="app.diagrams.net" modified="2020-11-25T06:23:34.786Z" agent="5.0 (Windows NT 10.0; Win64; x64) AppleWebKit/537.36 (KHTML, like Gecko) Chrome/87.0.4280.66 Safari/537.36" etag="5aFudkSXfcT-f8EpOY3Z" version="13.10.2" type="github">
  <diagram id="wxn5mv5xmumFphMEmd_6" name="Page-1">
    <mxGraphModel dx="1422" dy="794" grid="1" gridSize="10" guides="1" tooltips="1" connect="1" arrows="1" fold="1" page="1" pageScale="1" pageWidth="850" pageHeight="1100" math="0" shadow="0">
      <root>
        <mxCell id="0" />
        <mxCell id="1" parent="0" />
        <mxCell id="JURUCc577Gst6hhDK0Ws-16" value="DAVID.JOB_HISTORY" style="swimlane;fontStyle=1;childLayout=stackLayout;horizontal=1;startSize=26;horizontalStack=0;resizeParent=1;resizeParentMax=0;resizeLast=0;collapsible=1;marginBottom=0;align=center;fontSize=14;" vertex="1" parent="1">
          <mxGeometry x="130" y="400" width="160" height="141" as="geometry" />
        </mxCell>
        <mxCell id="JURUCc577Gst6hhDK0Ws-17" value="employee_id" style="text;strokeColor=none;fillColor=none;spacingLeft=4;spacingRight=4;overflow=hidden;rotatable=0;points=[[0,0.5],[1,0.5]];portConstraint=eastwest;fontSize=12;align=center;fontColor=#FF1C14;" vertex="1" parent="JURUCc577Gst6hhDK0Ws-16">
          <mxGeometry y="26" width="160" height="23" as="geometry" />
        </mxCell>
        <mxCell id="JURUCc577Gst6hhDK0Ws-18" value="start_date" style="text;strokeColor=none;fillColor=none;spacingLeft=4;spacingRight=4;overflow=hidden;rotatable=0;points=[[0,0.5],[1,0.5]];portConstraint=eastwest;fontSize=12;align=center;" vertex="1" parent="JURUCc577Gst6hhDK0Ws-16">
          <mxGeometry y="49" width="160" height="23" as="geometry" />
        </mxCell>
        <mxCell id="JURUCc577Gst6hhDK0Ws-19" value="end_date" style="text;strokeColor=none;fillColor=none;spacingLeft=4;spacingRight=4;overflow=hidden;rotatable=0;points=[[0,0.5],[1,0.5]];portConstraint=eastwest;fontSize=12;align=center;" vertex="1" parent="JURUCc577Gst6hhDK0Ws-16">
          <mxGeometry y="72" width="160" height="23" as="geometry" />
        </mxCell>
        <mxCell id="JURUCc577Gst6hhDK0Ws-25" value="job_id" style="text;strokeColor=none;fillColor=none;spacingLeft=4;spacingRight=4;overflow=hidden;rotatable=0;points=[[0,0.5],[1,0.5]];portConstraint=eastwest;fontSize=12;align=center;" vertex="1" parent="JURUCc577Gst6hhDK0Ws-16">
          <mxGeometry y="95" width="160" height="23" as="geometry" />
        </mxCell>
        <mxCell id="JURUCc577Gst6hhDK0Ws-26" value="department_id" style="text;strokeColor=none;fillColor=none;spacingLeft=4;spacingRight=4;overflow=hidden;rotatable=0;points=[[0,0.5],[1,0.5]];portConstraint=eastwest;fontSize=12;align=center;" vertex="1" parent="JURUCc577Gst6hhDK0Ws-16">
          <mxGeometry y="118" width="160" height="23" as="geometry" />
        </mxCell>
        <mxCell id="JURUCc577Gst6hhDK0Ws-120" style="rounded=0;orthogonalLoop=1;jettySize=auto;html=1;entryX=0.488;entryY=1.174;entryDx=0;entryDy=0;entryPerimeter=0;dashed=1;endArrow=ERmany;endFill=0;" edge="1" parent="1" source="JURUCc577Gst6hhDK0Ws-27" target="JURUCc577Gst6hhDK0Ws-26">
          <mxGeometry relative="1" as="geometry" />
        </mxCell>
        <mxCell id="JURUCc577Gst6hhDK0Ws-123" style="edgeStyle=orthogonalEdgeStyle;rounded=0;orthogonalLoop=1;jettySize=auto;html=1;entryX=0;entryY=0.5;entryDx=0;entryDy=0;dashed=1;endArrow=ERmany;endFill=0;" edge="1" parent="1" source="JURUCc577Gst6hhDK0Ws-27" target="JURUCc577Gst6hhDK0Ws-64">
          <mxGeometry relative="1" as="geometry" />
        </mxCell>
        <mxCell id="JURUCc577Gst6hhDK0Ws-27" value="DAVID.JOBS" style="swimlane;fontStyle=1;childLayout=stackLayout;horizontal=1;startSize=26;horizontalStack=0;resizeParent=1;resizeParentMax=0;resizeLast=0;collapsible=1;marginBottom=0;align=center;fontSize=14;" vertex="1" parent="1">
          <mxGeometry x="130" y="601" width="160" height="118" as="geometry">
            <mxRectangle x="80" y="434" width="70" height="26" as="alternateBounds" />
          </mxGeometry>
        </mxCell>
        <mxCell id="JURUCc577Gst6hhDK0Ws-39" value="job_id" style="text;strokeColor=none;fillColor=none;spacingLeft=4;spacingRight=4;overflow=hidden;rotatable=0;points=[[0,0.5],[1,0.5]];portConstraint=eastwest;fontSize=12;align=center;fontColor=#FF0800;" vertex="1" parent="JURUCc577Gst6hhDK0Ws-27">
          <mxGeometry y="26" width="160" height="23" as="geometry" />
        </mxCell>
        <mxCell id="JURUCc577Gst6hhDK0Ws-29" value="job_title" style="text;strokeColor=none;fillColor=none;spacingLeft=4;spacingRight=4;overflow=hidden;rotatable=0;points=[[0,0.5],[1,0.5]];portConstraint=eastwest;fontSize=12;align=center;fontColor=#FF0800;" vertex="1" parent="JURUCc577Gst6hhDK0Ws-27">
          <mxGeometry y="49" width="160" height="23" as="geometry" />
        </mxCell>
        <mxCell id="JURUCc577Gst6hhDK0Ws-30" value="min_salary" style="text;strokeColor=none;fillColor=none;spacingLeft=4;spacingRight=4;overflow=hidden;rotatable=0;points=[[0,0.5],[1,0.5]];portConstraint=eastwest;fontSize=12;align=center;" vertex="1" parent="JURUCc577Gst6hhDK0Ws-27">
          <mxGeometry y="72" width="160" height="23" as="geometry" />
        </mxCell>
        <mxCell id="JURUCc577Gst6hhDK0Ws-33" value="max_salary" style="text;strokeColor=none;fillColor=none;spacingLeft=4;spacingRight=4;overflow=hidden;rotatable=0;points=[[0,0.5],[1,0.5]];portConstraint=eastwest;fontSize=12;align=center;" vertex="1" parent="JURUCc577Gst6hhDK0Ws-27">
          <mxGeometry y="95" width="160" height="23" as="geometry" />
        </mxCell>
        <mxCell id="JURUCc577Gst6hhDK0Ws-125" style="edgeStyle=orthogonalEdgeStyle;rounded=0;orthogonalLoop=1;jettySize=auto;html=1;entryX=0.5;entryY=0;entryDx=0;entryDy=0;dashed=1;endArrow=ERmany;endFill=0;" edge="1" parent="1" source="JURUCc577Gst6hhDK0Ws-46" target="JURUCc577Gst6hhDK0Ws-52">
          <mxGeometry relative="1" as="geometry" />
        </mxCell>
        <mxCell id="JURUCc577Gst6hhDK0Ws-46" value="DAVID.DEPARTMENTS" style="swimlane;fontStyle=1;childLayout=stackLayout;horizontal=1;startSize=26;horizontalStack=0;resizeParent=1;resizeParentMax=0;resizeLast=0;collapsible=1;marginBottom=0;align=center;fontSize=14;" vertex="1" parent="1">
          <mxGeometry x="350" y="270" width="160" height="118" as="geometry" />
        </mxCell>
        <mxCell id="JURUCc577Gst6hhDK0Ws-50" value="department_id" style="text;strokeColor=none;fillColor=none;spacingLeft=4;spacingRight=4;overflow=hidden;rotatable=0;points=[[0,0.5],[1,0.5]];portConstraint=eastwest;fontSize=12;align=center;fontColor=#FF0303;" vertex="1" parent="JURUCc577Gst6hhDK0Ws-46">
          <mxGeometry y="26" width="160" height="23" as="geometry" />
        </mxCell>
        <mxCell id="JURUCc577Gst6hhDK0Ws-47" value="department_name" style="text;strokeColor=none;fillColor=none;spacingLeft=4;spacingRight=4;overflow=hidden;rotatable=0;points=[[0,0.5],[1,0.5]];portConstraint=eastwest;fontSize=12;align=center;fontColor=#FF1C14;" vertex="1" parent="JURUCc577Gst6hhDK0Ws-46">
          <mxGeometry y="49" width="160" height="23" as="geometry" />
        </mxCell>
        <mxCell id="JURUCc577Gst6hhDK0Ws-48" value="manager_id" style="text;strokeColor=none;fillColor=none;spacingLeft=4;spacingRight=4;overflow=hidden;rotatable=0;points=[[0,0.5],[1,0.5]];portConstraint=eastwest;fontSize=12;align=center;fontColor=#FF0800;" vertex="1" parent="JURUCc577Gst6hhDK0Ws-46">
          <mxGeometry y="72" width="160" height="23" as="geometry" />
        </mxCell>
        <mxCell id="JURUCc577Gst6hhDK0Ws-49" value="location_id" style="text;strokeColor=none;fillColor=none;spacingLeft=4;spacingRight=4;overflow=hidden;rotatable=0;points=[[0,0.5],[1,0.5]];portConstraint=eastwest;fontSize=12;align=center;" vertex="1" parent="JURUCc577Gst6hhDK0Ws-46">
          <mxGeometry y="95" width="160" height="23" as="geometry" />
        </mxCell>
        <mxCell id="JURUCc577Gst6hhDK0Ws-52" value="DAVID.EMPLOYEES" style="swimlane;fontStyle=1;childLayout=stackLayout;horizontal=1;startSize=26;horizontalStack=0;resizeParent=1;resizeParentMax=0;resizeLast=0;collapsible=1;marginBottom=0;align=center;fontSize=14;" vertex="1" parent="1">
          <mxGeometry x="350" y="440" width="160" height="279" as="geometry" />
        </mxCell>
        <mxCell id="JURUCc577Gst6hhDK0Ws-53" value="employee_id" style="text;strokeColor=none;fillColor=none;spacingLeft=4;spacingRight=4;overflow=hidden;rotatable=0;points=[[0,0.5],[1,0.5]];portConstraint=eastwest;fontSize=12;align=center;fontColor=#FF0800;" vertex="1" parent="JURUCc577Gst6hhDK0Ws-52">
          <mxGeometry y="26" width="160" height="23" as="geometry" />
        </mxCell>
        <mxCell id="JURUCc577Gst6hhDK0Ws-54" value="first_name" style="text;strokeColor=none;fillColor=none;spacingLeft=4;spacingRight=4;overflow=hidden;rotatable=0;points=[[0,0.5],[1,0.5]];portConstraint=eastwest;fontSize=12;align=center;fontColor=#FF0800;" vertex="1" parent="JURUCc577Gst6hhDK0Ws-52">
          <mxGeometry y="49" width="160" height="23" as="geometry" />
        </mxCell>
        <mxCell id="JURUCc577Gst6hhDK0Ws-128" style="edgeStyle=orthogonalEdgeStyle;rounded=0;orthogonalLoop=1;jettySize=auto;html=1;exitX=1;exitY=0.5;exitDx=0;exitDy=0;entryX=1;entryY=0.5;entryDx=0;entryDy=0;dashed=1;endArrow=ERmany;endFill=0;" edge="1" parent="JURUCc577Gst6hhDK0Ws-52" source="JURUCc577Gst6hhDK0Ws-55" target="JURUCc577Gst6hhDK0Ws-53">
          <mxGeometry relative="1" as="geometry" />
        </mxCell>
        <mxCell id="JURUCc577Gst6hhDK0Ws-55" value="last_name" style="text;strokeColor=none;fillColor=none;spacingLeft=4;spacingRight=4;overflow=hidden;rotatable=0;points=[[0,0.5],[1,0.5]];portConstraint=eastwest;fontSize=12;align=center;fontColor=#FF0800;" vertex="1" parent="JURUCc577Gst6hhDK0Ws-52">
          <mxGeometry y="72" width="160" height="23" as="geometry" />
        </mxCell>
        <mxCell id="JURUCc577Gst6hhDK0Ws-56" value="email" style="text;strokeColor=none;fillColor=none;spacingLeft=4;spacingRight=4;overflow=hidden;rotatable=0;points=[[0,0.5],[1,0.5]];portConstraint=eastwest;fontSize=12;align=center;fontColor=#FF0800;" vertex="1" parent="JURUCc577Gst6hhDK0Ws-52">
          <mxGeometry y="95" width="160" height="23" as="geometry" />
        </mxCell>
        <mxCell id="JURUCc577Gst6hhDK0Ws-63" value="phone_number" style="text;strokeColor=none;fillColor=none;spacingLeft=4;spacingRight=4;overflow=hidden;rotatable=0;points=[[0,0.5],[1,0.5]];portConstraint=eastwest;fontSize=12;align=center;fontColor=#FF0800;" vertex="1" parent="JURUCc577Gst6hhDK0Ws-52">
          <mxGeometry y="118" width="160" height="23" as="geometry" />
        </mxCell>
        <mxCell id="JURUCc577Gst6hhDK0Ws-64" value="hire_date" style="text;strokeColor=none;fillColor=none;spacingLeft=4;spacingRight=4;overflow=hidden;rotatable=0;points=[[0,0.5],[1,0.5]];portConstraint=eastwest;fontSize=12;align=center;" vertex="1" parent="JURUCc577Gst6hhDK0Ws-52">
          <mxGeometry y="141" width="160" height="23" as="geometry" />
        </mxCell>
        <mxCell id="JURUCc577Gst6hhDK0Ws-61" value="job_id" style="text;strokeColor=none;fillColor=none;spacingLeft=4;spacingRight=4;overflow=hidden;rotatable=0;points=[[0,0.5],[1,0.5]];portConstraint=eastwest;fontSize=12;align=center;" vertex="1" parent="JURUCc577Gst6hhDK0Ws-52">
          <mxGeometry y="164" width="160" height="23" as="geometry" />
        </mxCell>
        <mxCell id="JURUCc577Gst6hhDK0Ws-57" value="salary" style="text;strokeColor=none;fillColor=none;spacingLeft=4;spacingRight=4;overflow=hidden;rotatable=0;points=[[0,0.5],[1,0.5]];portConstraint=eastwest;fontSize=12;align=center;" vertex="1" parent="JURUCc577Gst6hhDK0Ws-52">
          <mxGeometry y="187" width="160" height="23" as="geometry" />
        </mxCell>
        <mxCell id="JURUCc577Gst6hhDK0Ws-59" value="commission_pct" style="text;strokeColor=none;fillColor=none;spacingLeft=4;spacingRight=4;overflow=hidden;rotatable=0;points=[[0,0.5],[1,0.5]];portConstraint=eastwest;fontSize=12;align=center;" vertex="1" parent="JURUCc577Gst6hhDK0Ws-52">
          <mxGeometry y="210" width="160" height="23" as="geometry" />
        </mxCell>
        <mxCell id="JURUCc577Gst6hhDK0Ws-58" value="manager_id" style="text;strokeColor=none;fillColor=none;spacingLeft=4;spacingRight=4;overflow=hidden;rotatable=0;points=[[0,0.5],[1,0.5]];portConstraint=eastwest;fontSize=12;align=center;" vertex="1" parent="JURUCc577Gst6hhDK0Ws-52">
          <mxGeometry y="233" width="160" height="23" as="geometry" />
        </mxCell>
        <mxCell id="JURUCc577Gst6hhDK0Ws-62" value="department_id" style="text;strokeColor=none;fillColor=none;spacingLeft=4;spacingRight=4;overflow=hidden;rotatable=0;points=[[0,0.5],[1,0.5]];portConstraint=eastwest;fontSize=12;align=center;" vertex="1" parent="JURUCc577Gst6hhDK0Ws-52">
          <mxGeometry y="256" width="160" height="23" as="geometry" />
        </mxCell>
        <mxCell id="JURUCc577Gst6hhDK0Ws-80" value="DAVID.LOCATIONS" style="swimlane;fontStyle=1;childLayout=stackLayout;horizontal=1;startSize=26;horizontalStack=0;resizeParent=1;resizeParentMax=0;resizeLast=0;collapsible=1;marginBottom=0;align=center;fontSize=14;" vertex="1" parent="1">
          <mxGeometry x="560" y="270" width="160" height="164" as="geometry" />
        </mxCell>
        <mxCell id="JURUCc577Gst6hhDK0Ws-81" value="location_id" style="text;strokeColor=none;fillColor=none;spacingLeft=4;spacingRight=4;overflow=hidden;rotatable=0;points=[[0,0.5],[1,0.5]];portConstraint=eastwest;fontSize=12;align=center;fontColor=#FF0800;" vertex="1" parent="JURUCc577Gst6hhDK0Ws-80">
          <mxGeometry y="26" width="160" height="23" as="geometry" />
        </mxCell>
        <mxCell id="JURUCc577Gst6hhDK0Ws-82" value="street_address" style="text;strokeColor=none;fillColor=none;spacingLeft=4;spacingRight=4;overflow=hidden;rotatable=0;points=[[0,0.5],[1,0.5]];portConstraint=eastwest;fontSize=12;align=center;fontColor=#FF0800;" vertex="1" parent="JURUCc577Gst6hhDK0Ws-80">
          <mxGeometry y="49" width="160" height="23" as="geometry" />
        </mxCell>
        <mxCell id="JURUCc577Gst6hhDK0Ws-83" value="postal_code" style="text;strokeColor=none;fillColor=none;spacingLeft=4;spacingRight=4;overflow=hidden;rotatable=0;points=[[0,0.5],[1,0.5]];portConstraint=eastwest;fontSize=12;align=center;fontColor=#FF0800;" vertex="1" parent="JURUCc577Gst6hhDK0Ws-80">
          <mxGeometry y="72" width="160" height="23" as="geometry" />
        </mxCell>
        <mxCell id="JURUCc577Gst6hhDK0Ws-87" value="city" style="text;strokeColor=none;fillColor=none;spacingLeft=4;spacingRight=4;overflow=hidden;rotatable=0;points=[[0,0.5],[1,0.5]];portConstraint=eastwest;fontSize=12;align=center;fontColor=#FF0800;" vertex="1" parent="JURUCc577Gst6hhDK0Ws-80">
          <mxGeometry y="95" width="160" height="23" as="geometry" />
        </mxCell>
        <mxCell id="JURUCc577Gst6hhDK0Ws-86" value="state_province" style="text;strokeColor=none;fillColor=none;spacingLeft=4;spacingRight=4;overflow=hidden;rotatable=0;points=[[0,0.5],[1,0.5]];portConstraint=eastwest;fontSize=12;align=center;fontColor=#FF0800;" vertex="1" parent="JURUCc577Gst6hhDK0Ws-80">
          <mxGeometry y="118" width="160" height="23" as="geometry" />
        </mxCell>
        <mxCell id="JURUCc577Gst6hhDK0Ws-85" value="country_id" style="text;strokeColor=none;fillColor=none;spacingLeft=4;spacingRight=4;overflow=hidden;rotatable=0;points=[[0,0.5],[1,0.5]];portConstraint=eastwest;fontSize=12;align=center;" vertex="1" parent="JURUCc577Gst6hhDK0Ws-80">
          <mxGeometry y="141" width="160" height="23" as="geometry" />
        </mxCell>
        <mxCell id="JURUCc577Gst6hhDK0Ws-131" style="edgeStyle=none;rounded=0;orthogonalLoop=1;jettySize=auto;html=1;entryX=0.5;entryY=1.087;entryDx=0;entryDy=0;entryPerimeter=0;dashed=1;endArrow=ERmany;endFill=0;" edge="1" parent="1" source="JURUCc577Gst6hhDK0Ws-88" target="JURUCc577Gst6hhDK0Ws-85">
          <mxGeometry relative="1" as="geometry" />
        </mxCell>
        <mxCell id="JURUCc577Gst6hhDK0Ws-88" value="DAVID.COUNTRIES" style="swimlane;fontStyle=1;childLayout=stackLayout;horizontal=1;startSize=26;horizontalStack=0;resizeParent=1;resizeParentMax=0;resizeLast=0;collapsible=1;marginBottom=0;align=center;fontSize=14;" vertex="1" parent="1">
          <mxGeometry x="560" y="490" width="160" height="95" as="geometry" />
        </mxCell>
        <mxCell id="JURUCc577Gst6hhDK0Ws-89" value="country_id" style="text;strokeColor=none;fillColor=none;spacingLeft=4;spacingRight=4;overflow=hidden;rotatable=0;points=[[0,0.5],[1,0.5]];portConstraint=eastwest;fontSize=12;align=center;fontColor=#FF0800;" vertex="1" parent="JURUCc577Gst6hhDK0Ws-88">
          <mxGeometry y="26" width="160" height="23" as="geometry" />
        </mxCell>
        <mxCell id="JURUCc577Gst6hhDK0Ws-90" value="country_name" style="text;strokeColor=none;fillColor=none;spacingLeft=4;spacingRight=4;overflow=hidden;rotatable=0;points=[[0,0.5],[1,0.5]];portConstraint=eastwest;fontSize=12;align=center;fontColor=#FF0800;" vertex="1" parent="JURUCc577Gst6hhDK0Ws-88">
          <mxGeometry y="49" width="160" height="23" as="geometry" />
        </mxCell>
        <mxCell id="JURUCc577Gst6hhDK0Ws-91" value="region_id" style="text;strokeColor=none;fillColor=none;spacingLeft=4;spacingRight=4;overflow=hidden;rotatable=0;points=[[0,0.5],[1,0.5]];portConstraint=eastwest;fontSize=12;align=center;" vertex="1" parent="JURUCc577Gst6hhDK0Ws-88">
          <mxGeometry y="72" width="160" height="23" as="geometry" />
        </mxCell>
        <mxCell id="JURUCc577Gst6hhDK0Ws-130" style="rounded=0;orthogonalLoop=1;jettySize=auto;html=1;entryX=0.506;entryY=1.174;entryDx=0;entryDy=0;entryPerimeter=0;dashed=1;endArrow=ERmany;endFill=0;" edge="1" parent="1" source="JURUCc577Gst6hhDK0Ws-92" target="JURUCc577Gst6hhDK0Ws-91">
          <mxGeometry relative="1" as="geometry" />
        </mxCell>
        <mxCell id="JURUCc577Gst6hhDK0Ws-92" value="DAVID.REGIONS" style="swimlane;fontStyle=1;childLayout=stackLayout;horizontal=1;startSize=26;horizontalStack=0;resizeParent=1;resizeParentMax=0;resizeLast=0;collapsible=1;marginBottom=0;align=center;fontSize=14;" vertex="1" parent="1">
          <mxGeometry x="560" y="647" width="160" height="72" as="geometry" />
        </mxCell>
        <mxCell id="JURUCc577Gst6hhDK0Ws-93" value="region_id" style="text;strokeColor=none;fillColor=none;spacingLeft=4;spacingRight=4;overflow=hidden;rotatable=0;points=[[0,0.5],[1,0.5]];portConstraint=eastwest;fontSize=12;align=center;fontColor=#FF0800;" vertex="1" parent="JURUCc577Gst6hhDK0Ws-92">
          <mxGeometry y="26" width="160" height="23" as="geometry" />
        </mxCell>
        <mxCell id="JURUCc577Gst6hhDK0Ws-94" value="region_name" style="text;strokeColor=none;fillColor=none;spacingLeft=4;spacingRight=4;overflow=hidden;rotatable=0;points=[[0,0.5],[1,0.5]];portConstraint=eastwest;fontSize=12;align=center;fontColor=#FF0800;" vertex="1" parent="JURUCc577Gst6hhDK0Ws-92">
          <mxGeometry y="49" width="160" height="23" as="geometry" />
        </mxCell>
        <mxCell id="JURUCc577Gst6hhDK0Ws-98" value="" style="fontSize=12;html=1;endArrow=ERmany;dashed=1;exitX=0;exitY=0.5;exitDx=0;exitDy=0;entryX=1;entryY=0.5;entryDx=0;entryDy=0;" edge="1" parent="1" source="JURUCc577Gst6hhDK0Ws-82" target="JURUCc577Gst6hhDK0Ws-47">
          <mxGeometry width="100" height="100" relative="1" as="geometry">
            <mxPoint x="790" y="437.01" as="sourcePoint" />
            <mxPoint x="790" y="389.999" as="targetPoint" />
          </mxGeometry>
        </mxCell>
        <mxCell id="JURUCc577Gst6hhDK0Ws-124" style="edgeStyle=orthogonalEdgeStyle;rounded=0;orthogonalLoop=1;jettySize=auto;html=1;exitX=0;exitY=0.5;exitDx=0;exitDy=0;entryX=1;entryY=0.5;entryDx=0;entryDy=0;dashed=1;endArrow=ERmany;endFill=0;" edge="1" parent="1" source="JURUCc577Gst6hhDK0Ws-55" target="JURUCc577Gst6hhDK0Ws-18">
          <mxGeometry relative="1" as="geometry" />
        </mxCell>
        <mxCell id="JURUCc577Gst6hhDK0Ws-132" style="edgeStyle=orthogonalEdgeStyle;rounded=0;orthogonalLoop=1;jettySize=auto;html=1;entryX=0.5;entryY=0;entryDx=0;entryDy=0;dashed=1;endArrow=ERmany;endFill=0;" edge="1" parent="1" source="JURUCc577Gst6hhDK0Ws-47" target="JURUCc577Gst6hhDK0Ws-16">
          <mxGeometry relative="1" as="geometry" />
        </mxCell>
        <mxCell id="JURUCc577Gst6hhDK0Ws-133" value="LEGEND" style="swimlane;fontStyle=1;childLayout=stackLayout;horizontal=1;startSize=26;horizontalStack=0;resizeParent=1;resizeParentMax=0;resizeLast=0;collapsible=1;marginBottom=0;align=center;fontSize=14;" vertex="1" parent="1">
          <mxGeometry x="140" y="220" width="160" height="86" as="geometry" />
        </mxCell>
        <mxCell id="JURUCc577Gst6hhDK0Ws-134" value="primary keys" style="text;strokeColor=none;fillColor=none;spacingLeft=4;spacingRight=4;overflow=hidden;rotatable=0;points=[[0,0.5],[1,0.5]];portConstraint=eastwest;fontSize=12;align=center;fontColor=#FF0800;" vertex="1" parent="JURUCc577Gst6hhDK0Ws-133">
          <mxGeometry y="26" width="160" height="30" as="geometry" />
        </mxCell>
        <mxCell id="JURUCc577Gst6hhDK0Ws-135" value="foreign keys" style="text;strokeColor=none;fillColor=none;spacingLeft=4;spacingRight=4;overflow=hidden;rotatable=0;points=[[0,0.5],[1,0.5]];portConstraint=eastwest;fontSize=12;align=center;" vertex="1" parent="JURUCc577Gst6hhDK0Ws-133">
          <mxGeometry y="56" width="160" height="30" as="geometry" />
        </mxCell>
      </root>
    </mxGraphModel>
  </diagram>
</mxfile>
